# File created by Blade
# Date/Time:  Fri Jan 16 19:00:24 2015
# Frame Rate: 120.000 fps
#------------------------------------------------------
:FULLY-SPECIFIED
:DEGREES
650
root 18.658874 36.590092 -21.177247 -143.936235 28.129821 -163.616607
Spine -25.240010 10.415411 -3.567062
Head 1.341566 6.764509 13.176639
LeftShoulder -10.619573 -21.549202 4.627834
LeftArm -4.166410 5.169715 -60.546540
LeftForeArm -4.160665 -0.000000 4.633867
LeftHand -1.862540 -0.000000 0.363862
LeftHandThumb1 -26.253704 0.000000 33.147579
RightShoulder -13.492766 -20.534612 12.585072
RightArm -4.519625 17.163298 69.027637
RightForeArm -27.149127 -0.000000 20.399118
RightHand -14.887501 -0.000000 -3.601756
RightHandThumb1 -24.326973 -0.000000 -32.862282
LeftUpLeg -27.631701 26.799836 -8.099171
LeftLeg -6.584824 -0.000000 0.000000
LeftFoot -21.267099 32.715077 -14.156654
LeftToeBase 20.947573 -0.000000 -0.000000
RightUpLeg 3.471667 -15.903418 -5.392987
RightLeg 98.434354 -0.000000 -0.000000
RightFoot 32.199129 -45.603500 -13.494649
RightToeBase 26.539285 -0.000000 -0.000000
651
root 18.659421 36.553518 -21.198035 -144.467308 27.939458 -164.166019
Spine -25.038468 10.138864 -3.821702
Head 1.352088 6.615716 13.127030
LeftShoulder -10.598995 -21.638522 4.673065
LeftArm -3.830724 5.370970 -60.767006
LeftForeArm -4.094169 0.000000 4.676030
LeftHand -1.859097 -0.000000 0.372126
LeftHandThumb1 -26.253704 0.000000 33.147579
RightShoulder -13.496165 -20.511468 12.684367
RightArm -4.586795 17.153056 69.061719
RightForeArm -27.137933 0.000000 20.352250
RightHand -14.866678 0.000000 -3.478177
RightHandThumb1 -24.326973 -0.000000 -32.862282
LeftUpLeg -27.321560 26.437669 -8.302296
LeftLeg -6.531945 -0.000000 0.000000
LeftFoot -21.252009 32.765595 -13.968527
LeftToeBase 21.010126 -0.000000 -0.000000
RightUpLeg 3.117039 -15.564533 -4.859660
RightLeg 98.389412 -0.000000 -0.000000
RightFoot 32.121779 -45.494500 -13.467843
RightToeBase 26.340222 -0.000000 -0.000000
652
root 18.661305 36.512963 -21.222143 -145.071743 27.676706 -164.747490
Spine -24.759214 9.816241 -4.031455
Head 1.364763 6.492475 13.089393
LeftShoulder -10.514374 -21.719465 4.655715
LeftArm -3.561190 5.572404 -60.962459
LeftForeArm -4.004199 0.000000 4.823301
LeftHand -1.896596 -0.000000 0.376804
LeftHandThumb1 -26.253704 0.000000 33.147579
RightShoulder -13.513543 -20.456777 12.738607
RightArm -4.608768 17.057088 69.125495
RightForeArm -27.036757 -0.000000 20.168544
RightHand -14.807655 0.000000 -3.534561
RightHandThumb1 -24.326973 -0.000000 -32.862282
LeftUpLeg -26.915841 25.988938 -8.449860
LeftLeg -6.512585 -0.000000 0.000000
LeftFoot -21.208904 32.864439 -13.694573
LeftToeBase 20.891303 -0.000000 -0.000000
RightUpLeg 2.837713 -15.292607 -4.349250
RightLeg 98.312728 -0.000000 -0.000000
RightFoot 32.096660 -45.380431 -13.508286
RightToeBase 26.136322 -0.000000 -0.000000
653
root 18.656941 36.472124 -21.244441 -145.660459 27.458855 -165.324660
Spine -24.476803 9.531331 -4.261120
Head 1.390587 6.338416 12.996388
LeftShoulder -10.475824 -21.759770 4.629802
LeftArm -3.189557 5.827468 -61.169379
LeftForeArm -3.950155 -0.000000 4.878956
LeftHand -1.863585 -0.000000 0.445170
LeftHandThumb1 -26.253704 0.000000 33.147579
RightShoulder -13.514378 -20.433177 12.816251
RightArm -4.601255 17.006527 69.181749
RightForeArm -26.980747 -0.000000 20.080560
RightHand -14.877468 -0.000000 -3.539674
RightHandThumb1 -24.326973 -0.000000 -32.862282
LeftUpLeg -26.490974 25.498737 -8.599545
LeftLeg -6.530214 -0.000000 0.000000
LeftFoot -21.149173 33.069470 -13.411048
LeftToeBase 20.860260 -0.000000 -0.000000
RightUpLeg 2.514536 -14.898778 -3.837113
RightLeg 98.269552 -0.000000 -0.000000
RightFoot 31.605599 -45.330133 -13.102769
RightToeBase 26.352289 -0.000000 -0.000000
654
root 18.653294 36.430762 -21.265383 -146.251670 27.200566 -165.884876
Spine -24.182539 9.277894 -4.468683
Head 1.397755 6.187397 12.916654
LeftShoulder -10.378914 -21.818633 4.589391
LeftArm -2.834992 5.986423 -61.398318
LeftForeArm -3.859810 0.000000 4.926105
LeftHand -1.895057 -0.000000 0.405254
LeftHandThumb1 -26.253704 0.000000 33.147579
RightShoulder -13.501886 -20.346473 12.873540
RightArm -4.675258 17.016398 69.220288
RightForeArm -27.007240 -0.000000 19.977529
RightHand -14.864680 -0.000000 -3.538414
RightHandThumb1 -24.326973 -0.000000 -32.862282
LeftUpLeg -26.046346 25.008191 -8.726423
LeftLeg -6.574864 -0.000000 0.000000
LeftFoot -21.093918 33.230760 -13.130607
LeftToeBase 20.871546 -0.000000 -0.000000
RightUpLeg 2.180933 -14.560632 -3.309015
RightLeg 98.210012 -0.000000 -0.000000
RightFoot 31.416755 -45.325923 -12.970235
RightToeBase 26.081543 -0.000000 -0.000000
